<svg xmlns="http://www.w3.org/2000/svg" viewBox="0 0 32 32" fill="none">
  <defs>
    <linearGradient id="f-bg" x1="4" y1="2" x2="28" y2="30" gradientUnits="userSpaceOnUse">
      <stop stop-color="#34d399"/>
      <stop offset="1" stop-color="#047857"/>
    </linearGradient>
  </defs>
  <rect width="32" height="32" rx="8" fill="url(#f-bg)"/>
  <path d="M9 8.5h8.5L21 11.8V24.5A1 1 0 0 1 20 25.5H9A1 1 0 0 1 8 24.5V9.5A1 1 0 0 1 9 8.5Z" fill="#fff"/>
  <path d="M17.5 8.5V11.5H21L17.5 8.5Z" fill="#d1fae5"/>
  <rect x="10.5" y="14.5" width="7" height="1.5" rx="0.75" fill="#10b981"/>
  <rect x="10.5" y="17.5" width="9.5" height="1.5" rx="0.75" fill="#10b981" opacity="0.7"/>
  <path d="M21 7a5 5 0 0 1 .9 2.8" stroke="#fff" stroke-width="1.6" stroke-linecap="round"/>
  <circle cx="21.5" cy="7.8" r="1.4" fill="#fff"/>
  <path d="M7 21.5h4.5M9.2 19.8 11 21.5 9.2 23.2" stroke="#fff" stroke-width="1.5" stroke-linecap="round" stroke-linejoin="round"/>
</svg>
