<svg xmlns="http://www.w3.org/2000/svg" viewBox="0 0 48 48" fill="none" role="img" aria-label="HT Monitor">
  <defs>
    <linearGradient id="ht-bg" x1="6" y1="4" x2="42" y2="44" gradientUnits="userSpaceOnUse">
      <stop stop-color="#34d399"/>
      <stop offset="1" stop-color="#047857"/>
    </linearGradient>
    <linearGradient id="ht-fold" x1="27" y1="13" x2="34" y2="20" gradientUnits="userSpaceOnUse">
      <stop stop-color="#ecfdf5"/>
      <stop offset="1" stop-color="#a7f3d0"/>
    </linearGradient>
  </defs>
  <rect width="48" height="48" rx="12" fill="url(#ht-bg)"/>
  <!-- PDF / documento -->
  <path d="M14 12.5h12.8L32 17.7V35.5A1.5 1.5 0 0 1 30.5 37H14A1.5 1.5 0 0 1 12.5 35.5V14A1.5 1.5 0 0 1 14 12.5Z" fill="#fff" fill-opacity="0.96"/>
  <path d="M26.8 12.5V17H32L26.8 12.5Z" fill="url(#ht-fold)"/>
  <rect x="16" y="21.5" width="11" height="2" rx="1" fill="#10b981"/>
  <rect x="16" y="26" width="15" height="2" rx="1" fill="#10b981" fill-opacity="0.75"/>
  <rect x="16" y="30.5" width="9" height="2" rx="1" fill="#10b981" fill-opacity="0.55"/>
  <!-- Pulso de monitoramento -->
  <path d="M31.5 10.5a7.5 7.5 0 0 1 1.4 4.2" stroke="#fff" stroke-width="2" stroke-linecap="round" opacity="0.95"/>
  <path d="M33.2 8.8a10 10 0 0 1 1.8 5.8" stroke="#fff" stroke-width="1.5" stroke-linecap="round" opacity="0.45"/>
  <circle cx="32.5" cy="11.5" r="2" fill="#fff"/>
  <!-- Fluxo rename / move -->
  <path d="M10.5 32.5h7M14 29.8 16.8 32.5 14 35.2" stroke="#fff" stroke-width="2" stroke-linecap="round" stroke-linejoin="round" opacity="0.9"/>
</svg>
